<?xml version="1.0" standalone="no"?>
<!DOCTYPE svg PUBLIC "-//W3C//DTD SVG 20010904//EN"
 "http://www.w3.org/TR/2001/REC-SVG-20010904/DTD/svg10.dtd">
<svg version="1.0" xmlns="http://www.w3.org/2000/svg"
 width="1080.000000pt" height="1080.000000pt" viewBox="0 0 1080.000000 1080.000000"
 preserveAspectRatio="xMidYMid meet">

<g transform="translate(0.000000,1080.000000) scale(0.100000,-0.100000)"
fill="#000000" stroke="none">
<path d="M8220 8030 c-280 -37 -521 -157 -720 -359 -226 -230 -342 -518 -342
-846 0 -334 117 -620 352 -855 177 -178 378 -284 645 -341 90 -20 342 -17 443
4 488 104 847 459 959 949 23 102 23 384 0 487 -110 481 -464 836 -937 942
-98 22 -306 32 -400 19z"/>
<path d="M4745 7669 c-282 -51 -504 -165 -688 -353 -216 -220 -347 -537 -347
-840 -1 -433 -212 -831 -571 -1074 -69 -46 -216 -118 -304 -147 -119 -40 -203
-54 -390 -65 -257 -14 -385 -45 -563 -134 -644 -323 -859 -1140 -461 -1751 64
-100 239 -275 338 -339 237 -154 517 -225 784 -197 157 16 281 51 422 121 226
111 390 265 519 485 98 168 142 325 156 560 13 213 17 243 47 360 136 528 586
908 1128 953 659 55 1248 -397 1366 -1047 11 -58 19 -139 19 -180 1 -273 67
-499 209 -716 170 -261 436 -443 751 -516 127 -29 364 -32 490 -5 467 100 822
437 943 894 28 110 30 128 30 297 0 169 -2 187 -31 297 -120 457 -478 798
-938 893 -43 9 -152 20 -243 25 -183 10 -247 19 -368 56 -305 91 -562 295
-728 575 -112 190 -160 357 -175 617 -6 97 -18 215 -27 262 -93 492 -488 877
-989 964 -96 17 -297 20 -379 5z"/>
</g>
</svg>
