<?xml version="1.0" encoding="UTF-8"?>
<svg version="1.1" xmlns="http://www.w3.org/2000/svg" width="1080" height="1080">
<path d="M0 0 C2.16132182 -0.00258632 4.32264316 -0.00560023 6.48396385 -0.0090034 C12.40807587 -0.01704554 18.33217575 -0.01886142 24.25629258 -0.01960087 C30.65200514 -0.02145634 37.04771147 -0.02900625 43.44342041 -0.03573608 C58.15199797 -0.05000812 72.86057303 -0.05584391 87.56915631 -0.06042803 C94.84711948 -0.06276797 102.12508188 -0.06637111 109.40304444 -0.07012341 C134.34543753 -0.08295717 159.2878302 -0.09367542 184.23022652 -0.09712601 C185.79465898 -0.09734764 187.35909144 -0.09756942 188.9235239 -0.09779136 C190.49161183 -0.09801199 192.05969977 -0.09823248 193.62778771 -0.09845281 C196.77333268 -0.09889534 199.91887764 -0.09934246 203.06442261 -0.09979248 C203.84432914 -0.09990187 204.62423567 -0.10001126 205.42777573 -0.10012397 C230.69148271 -0.10375108 255.95516093 -0.11965894 281.21885691 -0.14298284 C307.96599326 -0.16763086 334.71311319 -0.18130119 361.46026123 -0.18249393 C364.40187129 -0.18266536 367.34348134 -0.18288078 370.2850914 -0.18312836 C371.37145151 -0.18321201 371.37145151 -0.18321201 372.47975829 -0.18329735 C384.08877527 -0.18444361 395.69776254 -0.19542941 407.30676952 -0.21001541 C418.99747623 -0.22444893 430.68814201 -0.22732847 442.37885524 -0.21957543 C448.70089783 -0.21568742 455.02284134 -0.21650743 461.34487152 -0.23063278 C467.14995817 -0.24348358 472.95487242 -0.24207744 478.75995921 -0.23004207 C480.84283563 -0.22810421 482.92572476 -0.23107319 485.00858344 -0.23988643 C547.79082475 -0.48838661 610.66224215 20.44173364 660.87643433 58.14044189 C661.9727234 58.94782195 663.0690778 59.75511332 664.16549683 60.56231689 C671.07274715 65.70629799 677.45683455 71.26339054 683.70846558 77.18341064 C686.0185802 79.36943278 688.39353175 81.45884464 690.80612183 83.53106689 C694.84070545 87.04409858 698.544638 90.7899551 702.18893433 94.70294189 C702.8355603 95.39549072 703.48218628 96.08803955 704.14840698 96.80157471 C709.67323719 102.78965434 714.76863263 109.03171823 719.66500854 115.53936768 C720.80290939 117.04326807 721.96582872 118.52814532 723.13034058 120.01153564 C755.59508077 161.88466208 774.73948768 213.7751281 780.87643433 266.14044189 C780.96562346 266.84717194 781.0548126 267.55390199 781.14670444 268.28204811 C782.23929165 278.24416203 782.0216716 288.25679394 782.01687622 298.26400757 C782.01946254 300.42532939 782.02247645 302.58665073 782.02587962 304.74797142 C782.03392176 310.67208343 782.03573764 316.59618332 782.03647709 322.52030015 C782.03833256 328.91601271 782.04588247 335.31171904 782.0526123 341.70742798 C782.06688434 356.41600553 782.07272013 371.1245806 782.07730425 385.83316388 C782.07964419 393.11112705 782.08324733 400.38908945 782.08699963 407.66705201 C782.09983339 432.6094451 782.11055164 457.55183777 782.11400223 482.49423409 C782.11422386 484.05866654 782.11444564 485.623099 782.11466758 487.18753146 C782.11488822 488.7556194 782.1151087 490.32370734 782.11532903 491.89179528 C782.11577156 495.03734024 782.11621868 498.18288521 782.1166687 501.32843018 C782.11677809 502.10833671 782.11688748 502.88824324 782.11700019 503.6917833 C782.1206273 528.95549028 782.13653516 554.2191685 782.15985906 579.48286448 C782.18450708 606.23000083 782.19817741 632.97712076 782.19937015 659.72426879 C782.19954158 662.66587886 782.199757 665.60748891 782.20000458 668.54909897 C782.20006035 669.27333904 782.20011611 669.99757912 782.20017357 670.74376586 C782.20131983 682.35278284 782.21230563 693.96177011 782.22689163 705.57077709 C782.24132515 717.2614838 782.24420469 728.95214958 782.23645166 740.64286281 C782.23256364 746.9649054 782.23338365 753.2868489 782.247509 759.60887909 C782.2603598 765.41396573 782.25895366 771.21887999 782.24691829 777.02396677 C782.24498043 779.1068432 782.24794941 781.18973233 782.25676265 783.27259101 C782.50526283 846.05483232 761.57514259 908.92624971 723.87643433 959.14044189 C723.06905427 960.23673097 722.2617629 961.33308537 721.45455933 962.42950439 C716.31057823 969.33675471 710.75348568 975.72084212 704.83346558 981.97247314 C702.64744344 984.28258777 700.55803158 986.65753932 698.48580933 989.07012939 C694.97277764 993.10471302 691.22692112 996.80864557 687.31393433 1000.45294189 C686.6213855 1001.09956787 685.92883667 1001.74619385 685.21530151 1002.41241455 C679.22722188 1007.93724475 672.985158 1013.03264019 666.47750854 1017.92901611 C664.97360815 1019.06691696 663.4887309 1020.22983629 662.00534058 1021.39434814 C620.13221414 1053.85908833 568.24174812 1073.00349525 515.87643433 1079.14044189 C515.16970428 1079.22963103 514.46297423 1079.31882017 513.73482811 1079.410712 C503.77271419 1080.50329922 493.76008228 1080.28567917 483.75286865 1080.28088379 C481.59154683 1080.28347011 479.43022549 1080.28648402 477.26890481 1080.28988719 C471.34479279 1080.29792933 465.4206929 1080.29974521 459.49657607 1080.30048466 C453.10086351 1080.30234013 446.70515718 1080.30989003 440.30944824 1080.31661987 C425.60087069 1080.33089191 410.89229562 1080.3367277 396.18371235 1080.34131182 C388.90574917 1080.34365176 381.62778677 1080.3472549 374.34982421 1080.3510072 C349.40743112 1080.36384096 324.46503846 1080.37455921 299.52264214 1080.3780098 C297.95820968 1080.37823142 296.39377722 1080.37845321 294.82934476 1080.37867515 C293.26125682 1080.37889578 291.69316888 1080.37911627 290.12508094 1080.3793366 C286.97953598 1080.37977913 283.83399101 1080.38022625 280.68844604 1080.38067627 C279.90853951 1080.38078566 279.12863298 1080.38089505 278.32509292 1080.38100776 C253.06138594 1080.38463487 227.79770772 1080.40054273 202.53401174 1080.42386663 C175.78687539 1080.44851464 149.03975546 1080.46218498 122.29260743 1080.46337771 C119.35099736 1080.46354915 116.40938731 1080.46376457 113.46777725 1080.46401215 C112.74353718 1080.46406791 112.01929711 1080.46412368 111.27311036 1080.46418114 C99.66409338 1080.4653274 88.05510611 1080.4763132 76.44609913 1080.4908992 C64.75539242 1080.50533272 53.06472665 1080.50821226 41.37401341 1080.50045922 C35.05197082 1080.49657121 28.73002732 1080.49739122 22.40799713 1080.51151657 C16.60291049 1080.52436736 10.79799623 1080.52296123 4.99290945 1080.51092586 C2.91003302 1080.508988 0.8271439 1080.51195698 -1.25571479 1080.52077022 C-64.0379561 1080.7692704 -126.90937349 1059.83915015 -177.12356567 1022.14044189 C-178.21985475 1021.33306184 -179.31620915 1020.52577047 -180.41262817 1019.71856689 C-187.31987849 1014.5745858 -193.7039659 1009.01749325 -199.95559692 1003.09747314 C-202.26571155 1000.91145101 -204.6406631 998.82203914 -207.05325317 996.74981689 C-211.0878368 993.23678521 -214.79176935 989.49092869 -218.43606567 985.57794189 C-219.08269165 984.88539307 -219.72931763 984.19284424 -220.39553833 983.47930908 C-225.92036853 977.49122945 -231.01576397 971.24916556 -235.91213989 964.74151611 C-237.05004074 963.23761572 -238.21296007 961.75273847 -239.37747192 960.26934814 C-271.84221211 918.39622171 -290.98661903 866.50575569 -297.12356567 814.14044189 C-297.21275481 813.43371184 -297.30194395 812.72698179 -297.39383578 811.99883568 C-298.486423 802.03672176 -298.26880295 792.02408985 -298.26400757 782.01687622 C-298.26659389 779.8555544 -298.26960779 777.69423306 -298.27301097 775.53291237 C-298.28105311 769.60880035 -298.28286899 763.68470047 -298.28360844 757.76058364 C-298.28546391 751.36487108 -298.29301381 744.96916475 -298.29974365 738.57345581 C-298.31401569 723.86487826 -298.31985148 709.15630319 -298.3244356 694.44771991 C-298.32677554 687.16975674 -298.33037867 679.89179434 -298.33413097 672.61383178 C-298.34696474 647.67143869 -298.35768299 622.72904602 -298.36113358 597.7866497 C-298.3613552 596.22221724 -298.36157699 594.65778478 -298.36179893 593.09335233 C-298.36201956 591.52526439 -298.36224005 589.95717645 -298.36246037 588.38908851 C-298.36290291 585.24354354 -298.36335003 582.09799858 -298.36380005 578.95245361 C-298.36390944 578.17254708 -298.36401883 577.39264055 -298.36413154 576.58910049 C-298.36775864 551.32539351 -298.38366651 526.06171529 -298.40699041 500.79801931 C-298.43163842 474.05088296 -298.44530876 447.30376303 -298.44650149 420.556615 C-298.44667293 417.61500493 -298.44688835 414.67339488 -298.44713593 411.73178482 C-298.44719169 411.00754475 -298.44724746 410.28330467 -298.44730492 409.53711793 C-298.44845118 397.92810095 -298.45943698 386.31911368 -298.47402298 374.7101067 C-298.4884565 363.01939999 -298.49133603 351.32873421 -298.483583 339.63802098 C-298.47969499 333.31597839 -298.480515 326.99403489 -298.49464035 320.6720047 C-298.50749114 314.86691806 -298.50608501 309.0620038 -298.49404964 303.25691701 C-298.49211178 301.17404059 -298.49508076 299.09115146 -298.503894 297.00829278 C-298.75239418 234.22605147 -277.82227393 171.35463407 -240.12356567 121.14044189 C-239.31618562 120.04415282 -238.50889425 118.94779842 -237.70169067 117.85137939 C-232.55770958 110.94412907 -227.00061703 104.56004167 -221.08059692 98.30841064 C-218.89457479 95.99829602 -216.80516292 93.62334447 -214.73294067 91.21075439 C-211.21990899 87.17617077 -207.47405247 83.47223822 -203.56106567 79.82794189 C-202.86851685 79.18131592 -202.17596802 78.53468994 -201.46243286 77.86846924 C-195.47435323 72.34363903 -189.23228934 67.24824359 -182.72463989 62.35186768 C-181.2207395 61.21396683 -179.73586225 60.0510475 -178.25247192 58.88653564 C-136.37934549 26.42179545 -84.48887947 7.27738854 -32.12356567 1.14044189 C-31.41683562 1.05125276 -30.71010557 0.96206362 -29.98195946 0.87017179 C-20.01984554 -0.22241543 -10.00721363 -0.00479538 0 0 Z " fill="#F4F4F4" transform="translate(298.1235656738281,-0.14044189453125)"/>
<path d="M0 0 C10.62137505 9.42775257 19.4986573 19.19397611 26.66845703 31.48095703 C27.21904785 32.41705811 27.21904785 32.41705811 27.78076172 33.37207031 C38.26951348 51.45467834 43.36318314 70.68613695 43.95874023 91.53613281 C44.9842938 126.42859803 56.07004455 156.57041393 79.66845703 182.48095703 C80.26013672 183.14353516 80.85181641 183.80611328 81.46142578 184.48876953 C91.09486226 194.71686258 103.2025428 202.22579751 115.66845703 208.48095703 C116.31733887 208.80725098 116.9662207 209.13354492 117.63476562 209.46972656 C135.44835765 218.1648274 154.70528436 220.73166447 174.33129883 221.10620117 C183.4251411 221.32615232 191.85470222 222.66593303 200.64306641 224.95898438 C202.51133518 225.44046444 204.3943172 225.86385891 206.27783203 226.28173828 C226.26343518 231.13998974 242.94203594 243.63260193 257.66845703 257.48095703 C258.33232422 258.06876953 258.99619141 258.65658203 259.68017578 259.26220703 C279.67115565 277.75284967 291.3565011 307.33317404 292.81640625 334.20410156 C294.06208254 370.29152968 282.46305129 401.23964666 258.40673828 427.99658203 C239.26634535 448.11772237 214.80715729 459.18979502 187.66845703 463.48095703 C186.53923828 463.66658203 185.41001953 463.85220703 184.24658203 464.04345703 C153.91506502 467.75211413 122.35754591 458.79988967 98.11914062 440.29833984 C75.29921049 422.36301199 59.5536624 398.73520156 52.66845703 370.48095703 C52.36037109 369.26666016 52.05228516 368.05236328 51.73486328 366.80126953 C49.57384058 357.01979838 49.33392607 347.41434031 49.07714844 337.4309082 C48.80924835 328.47386386 47.85299496 320.17689544 45.66845703 311.48095703 C45.45318359 310.60439453 45.23791016 309.72783203 45.01611328 308.82470703 C36.63034956 278.25884636 17.22153888 252.59241814 -9.33154297 235.48095703 C-10.31638672 234.83513672 -11.30123047 234.18931641 -12.31591797 233.52392578 C-20.23251606 228.61349534 -28.57191729 225.50851996 -37.33154297 222.48095703 C-38.23517578 222.16126953 -39.13880859 221.84158203 -40.06982422 221.51220703 C-47.89311965 218.80985973 -55.54549553 217.16570101 -63.76904297 216.35595703 C-64.56375 216.26958984 -65.35845703 216.18322266 -66.17724609 216.09423828 C-99.55833304 212.67192994 -131.60170054 223.23647141 -157.97607422 243.53564453 C-160.29185123 245.37435488 -160.29185123 245.37435488 -162.03076172 247.23876953 C-163.33154297 248.48095703 -163.33154297 248.48095703 -165.33154297 248.48095703 C-165.33154297 249.14095703 -165.33154297 249.80095703 -165.33154297 250.48095703 C-166.76628772 251.67587642 -168.20429765 252.86715037 -169.66064453 254.03564453 C-172.38223675 256.38979794 -174.51741338 259.13803501 -176.70654297 261.98095703 C-177.41544678 262.89409668 -177.41544678 262.89409668 -178.13867188 263.82568359 C-182.67975728 269.77289189 -186.63530134 275.97014608 -190.33154297 282.48095703 C-190.79044922 283.28533203 -191.24935547 284.08970703 -191.72216797 284.91845703 C-200.88705288 302.08811483 -204.22288299 320.1669267 -204.9296875 339.40185547 C-206.09095709 368.07427872 -213.14718539 394.84126684 -231.33154297 417.48095703 C-231.74130371 418.00141602 -232.15106445 418.521875 -232.57324219 419.05810547 C-238.77545029 426.89997778 -245.26160171 433.49053211 -253.33154297 439.48095703 C-254.11916016 440.08294922 -254.90677734 440.68494141 -255.71826172 441.30517578 C-280.86280802 459.79992471 -312.74658504 467.81113296 -343.64404297 463.66845703 C-345.87727629 463.29625148 -348.10682325 462.90106444 -350.33154297 462.48095703 C-351.92869141 462.18898438 -351.92869141 462.18898438 -353.55810547 461.89111328 C-382.54113092 455.93231608 -409.31793047 437.92500946 -426.33154297 413.79345703 C-427.68850473 411.70445011 -429.02302725 409.6006461 -430.33154297 407.48095703 C-431.28287109 405.98628906 -431.28287109 405.98628906 -432.25341797 404.46142578 C-443.36969742 386.33808984 -448.73707326 364.70858452 -448.70654297 343.54345703 C-448.70493164 342.36775146 -448.70332031 341.1920459 -448.70166016 339.98071289 C-448.55574475 329.45263014 -447.07057909 319.62761851 -444.33154297 309.48095703 C-444.04279297 308.38138672 -443.75404297 307.28181641 -443.45654297 306.14892578 C-433.96693088 274.50276404 -411.15821652 250.34810803 -382.86279297 234.54345703 C-364.91715894 225.16645907 -347.28855981 221.52832759 -327.26904297 221.10595703 C-297.07062057 220.35711378 -267.26129315 210.67632473 -244.33154297 190.48095703 C-243.50267578 189.78357422 -242.67380859 189.08619141 -241.81982422 188.36767578 C-231.21311215 179.22283827 -223.56323898 168.33709623 -216.33154297 156.48095703 C-215.78626953 155.63533203 -215.24099609 154.78970703 -214.67919922 153.91845703 C-203.47059522 135.3662849 -200.32858797 112.806316 -199.73095703 91.59912109 C-198.67260246 57.87226434 -185.55141533 28.22325444 -161.33154297 4.48095703 C-147.93862225 -7.62467468 -132.32245801 -16.55836065 -115.33154297 -22.51904297 C-114.45240234 -22.83486328 -113.57326172 -23.15068359 -112.66748047 -23.47607422 C-75.30419328 -35.82908285 -29.57709036 -25.49623527 0 0 Z " fill="#000000" transform="translate(570.33154296875,339.51904296875)"/>
<path d="M0 0 C1.46566406 0.309375 1.46566406 0.309375 2.9609375 0.625 C34.32446029 7.86906826 62.68910607 27.16908124 79.85864258 54.64941406 C96.06440006 81.4499743 103.41159383 113.65600997 96.40893555 144.71850586 C95.41633678 148.53186509 94.27684672 152.27288346 93 156 C92.53400391 157.423125 92.53400391 157.423125 92.05859375 158.875 C91.15891206 161.3279438 90.12623079 163.64218135 89 166 C88.73348633 166.57637207 88.46697266 167.15274414 88.19238281 167.74658203 C81.69100732 181.74386776 73.71986639 193.79638512 63 205 C62.38898438 205.67417969 61.77796875 206.34835937 61.1484375 207.04296875 C42.3239473 227.10907426 10.98453209 240.30160293 -16.3515625 241.23828125 C-51.40802218 241.86148225 -80.72489707 231.28839072 -107 208 C-107.78761719 207.31421875 -108.57523438 206.6284375 -109.38671875 205.921875 C-128.91767301 187.69826656 -143.29901965 157.76565385 -144.50682068 131.15971375 C-144.6083203 127.18802441 -144.60653536 123.22250495 -144.5625 119.25 C-144.55790771 118.41650024 -144.55331543 117.58300049 -144.54858398 116.72424316 C-144.45177823 103.93791808 -143.66510547 92.03597212 -139 80 C-138.71060547 79.23397461 -138.42121094 78.46794922 -138.12304688 77.67871094 C-131.81341739 61.39558008 -122.63117702 47.91560147 -111 35 C-110.40703125 34.33484375 -109.8140625 33.6696875 -109.203125 32.984375 C-82.24586942 4.42569829 -38.10032586 -8.21570369 0 0 Z " fill="#000000" transform="translate(860,278)"/>
</svg>
