<svg xmlns="http://www.w3.org/2000/svg" width="48" height="10" viewBox="0 0 137.8 18.6"><defs><style>.cls-1,.cls-2{fill:#fff;}.cls-2{font-size:4.23px;font-family:AvenirLTStd-Black, Avenir LT Std;font-weight:800;}</style></defs><g id="Layer_2" data-name="Layer 2"><g id="text_icons" data-name="text/icons"><rect class="cls-1" x="60.44" y="1.57" width="2.9" height="16.8"/><polygon class="cls-1" points="106.08 1.35 91.53 1.35 91.53 3.92 97.21 3.92 97.21 18.37 100.41 18.37 100.41 3.92 106.08 3.92 106.08 1.35"/><path class="cls-1" d="M83.68,12a6.06,6.06,0,1,1,0-5.49h3a8.87,8.87,0,1,0,0,5.49Z"/><polygon class="cls-1" points="15.04 1.57 25.54 13.91 25.54 18.37 15.04 6.39 15.04 1.57"/><rect class="cls-1" x="25.54" y="1.57" width="2.9" height="16.8"/><rect class="cls-1" x="12.14" y="1.57" width="2.9" height="16.8"/><rect class="cls-1" y="1.8" width="2.9" height="16.8"/><polygon class="cls-1" points="115.5 4.73 108.85 18.6 112.79 18.6 119.5 4.73 115.5 4.73"/><polygon class="cls-1" points="127.35 18.6 120.7 4.73 124.64 4.73 131.35 18.6 127.35 18.6"/><polygon class="cls-1" points="39.84 15.52 33.19 1.65 37.13 1.65 43.84 15.52 39.84 15.52"/><polygon class="cls-1" points="51.69 1.65 45.04 15.52 48.98 15.52 55.69 1.65 51.69 1.65"/><text class="cls-2" transform="translate(131.38 3.51)">TM</text></g></g></svg>